<svg width="140.000000" height="50.000000" viewBox="0 0 140 50" fill="none" xmlns="http://www.w3.org/2000/svg" xmlns:xlink="http://www.w3.org/1999/xlink">
	<desc>
			Created with Pixso.
	</desc>
	<defs>
		<clipPath id="clip627_112">
			<rect width="140.000000" height="50.000000" fill="white" fill-opacity="0"/>
		</clipPath>
		<linearGradient id="paint_linear_627_128_0" x1="31.417797" y1="35.194065" x2="36.551025" y2="43.072525" gradientUnits="userSpaceOnUse">
			<stop stop-color="#EB6101"/>
			<stop offset="1.000000" stop-color="#E60013"/>
		</linearGradient>
		<linearGradient id="paint_linear_627_129_0" x1="10.844960" y1="8.549450" x2="7.031008" y2="7.798016" gradientUnits="userSpaceOnUse">
			<stop stop-color="#E60013"/>
			<stop offset="1.000000" stop-color="#EB6101"/>
		</linearGradient>
	</defs>
	<rect width="140.000000" height="50.000000" fill="#FFFFFF" fill-opacity="0"/>
	<g clip-path="url(#clip627_112)">
		<path d="M63.1233 19.0873C63.1233 20.5541 63.0616 22.3469 63 23.7439L66.5507 23.7439L66.774 21.8813L66.8741 21.8813C67.6984 23.4334 68.6149 24 69.9551 24C72.8434 24 75 20.9887 75 15.463C75 11.2332 73.606 7.77957 70.6174 7.77957C69.9634 7.77127 69.3188 7.93878 68.7502 8.26477C68.1816 8.59079 67.7096 9.06357 67.3826 9.63446L67.3132 9.63446L67.3132 4L63.1541 4L63.1541 19.0795L63.1233 19.0873ZM67.2823 13.74C67.2886 13.4129 67.343 13.0885 67.4442 12.7776C67.6675 12.0016 68.2144 11.3419 68.8383 11.3419C70.2401 11.3419 70.8408 13.0648 70.8408 15.7889C70.8408 18.8001 70.2709 20.5541 68.869 20.5541C68.3607 20.5541 67.7908 20.2359 67.4442 19.1183C67.3328 18.7993 67.278 18.4631 67.2823 18.1249L67.2823 13.74Z" fill="#020000" fill-opacity="1.000000" fill-rule="evenodd"/>
		<path d="M82.066 8C78.9553 8 76 10.4993 76 16.0652C76 21.0867 78.2476 24 81.9961 24C84.3759 24 88 22.4131 88 15.9655C88 11.0666 85.7836 8 82.066 8ZM82.066 11.1586C83.5049 11.1586 83.8625 13.8495 83.8625 15.9655C83.8625 18.2655 83.5049 20.8337 82.1283 20.8337C80.6196 20.8337 80.1996 18.6258 80.1996 15.9655C80.1685 13.8495 80.4951 11.1586 82.035 11.1586L82.066 11.1586Z" fill="#020000" fill-opacity="1.000000" fill-rule="evenodd"/>
		<path d="M94.0623 8C90.9495 8 88 10.4993 88 16.0652C88 21.0867 90.2412 24 94 24C96.3735 24 100 22.4131 100 15.9655C100 11.0666 97.7821 8 94.0623 8ZM94.0623 11.1586C95.5098 11.1586 95.8599 13.8495 95.8599 15.9655C95.8599 18.2655 95.5098 20.8337 94.1245 20.8337C92.6147 20.8337 92.2023 18.6258 92.2023 15.9655C92.179 13.8495 92.5059 11.1586 94.0623 11.1586Z" fill="#020000" fill-opacity="1.000000" fill-rule="evenodd"/>
		<path d="M101 23.1133C102.069 23.7285 103.287 24.0345 104.52 23.9969C107.717 23.9969 110 22.2912 110 19.118C110 17.3432 109.147 15.7297 106.864 14.4313C105.404 13.5784 105.058 13.1635 105.058 12.4951C105.058 11.8266 105.535 11.1659 106.595 11.1659C107.359 11.1827 108.104 11.4028 108.755 11.8036L109.477 8.73029C108.506 8.23935 107.43 7.98898 106.342 8.00037C103.267 8.00037 101.238 10.121 101.238 12.91C101.238 14.3391 101.876 15.9833 104.374 17.3817C105.742 18.15 106.18 18.6801 106.18 19.4715C106.18 20.3858 105.581 20.8622 104.505 20.8622C103.52 20.8314 102.559 20.5483 101.715 20.04L101 23.1133Z" fill="#020000" fill-opacity="1.000000" fill-rule="evenodd"/>
		<path d="M111.815 5.31723L111.815 8.08414L110 8.08414L110 11.0771L111.815 11.0771L111.815 18.4972C111.815 20.9757 112.286 22.1605 113.099 23.0022C113.934 23.705 114.998 24.0585 116.076 23.9921C116.92 24.0074 117.762 23.9105 118.582 23.7037L118.582 20.4301C118.219 20.4935 117.85 20.5248 117.481 20.5237C116.722 20.5237 115.962 20.0716 115.962 18.24L115.962 11.0771L119 11.0771L119 8.08414L115.962 8.08414L115.962 4L111.815 5.31723Z" fill="#020000" fill-opacity="1.000000" fill-rule="evenodd"/>
		<path d="M130.861 17.5243C130.966 16.8103 131.012 16.0894 130.997 15.3684C130.997 10.6332 128.972 8 125.493 8C121.853 8 119 11.0798 119 16.354C119 21.2124 121.411 23.9996 125.863 23.9996C127.361 24.011 128.85 23.7767 130.266 23.3066L129.704 20.3192C128.71 20.647 127.668 20.8186 126.618 20.8274C124.729 20.8274 123.243 19.942 123.211 17.5243L130.861 17.5243ZM123.211 14.6062C123.211 13.0663 123.838 11.049 125.228 11.049C126.618 11.049 127.052 12.5889 127.052 14.6062L123.211 14.6062Z" fill="#020000" fill-opacity="1.000000" fill-rule="evenodd"/>
		<path d="M132.156 24L136.366 24L136.366 16.0093C136.352 15.4837 136.417 14.9589 136.561 14.4531C136.679 13.8549 136.993 13.3127 137.453 12.9113C137.913 12.51 138.493 12.2724 139.103 12.2357C139.402 12.2185 139.701 12.2185 140 12.2357L140 8.09637C139.707 8.02109 139.405 7.98962 139.103 8.00299C137.98 8.00299 136.694 8.89777 135.984 10.5706L135.86 10.5706L135.634 8.29089L132 8.29089C132.062 9.7692 132.125 11.4654 132.125 13.006L132.156 24Z" fill="#020000" fill-opacity="1.000000" fill-rule="evenodd"/>
		<path d="M63 45.0998C63.9315 45.7068 65.0338 46.0208 66.1564 45.9989C68.8204 45.9989 71 44.4899 71 41.3623C71 39.1965 69.5388 37.7813 67.6741 36.6163C66.0596 35.5529 65.6802 34.9743 65.6802 33.9422C65.6664 33.6765 65.7101 33.4109 65.8085 33.1625C65.907 32.9142 66.058 32.6884 66.2518 32.4999C66.4457 32.3115 66.6781 32.1643 66.9342 32.068C67.1902 31.9716 67.4642 31.9283 67.7386 31.9406C68.5198 31.9479 69.278 32.1972 69.9021 32.6521L70.5721 30.7834C69.7115 30.2675 68.7185 29.9965 67.7064 30.0015C67.1184 29.9862 66.5334 30.0877 65.9874 30.2996C65.4414 30.5115 64.9459 30.8294 64.5316 31.2337C64.1172 31.638 63.7926 32.1201 63.5778 32.6505C63.363 33.1808 63.2625 33.7481 63.2826 34.3175C63.2826 36.0924 64.4127 37.4451 66.5116 38.7352C68.1261 39.7986 68.5702 40.6117 68.5702 41.8002C68.5907 42.1041 68.5436 42.4088 68.4321 42.6935C68.3206 42.9783 68.1472 43.2365 67.9237 43.4508C67.7002 43.665 67.4318 43.8303 67.1366 43.9354C66.8414 44.0405 66.5265 44.0829 66.2129 44.0598C65.2897 44.0305 64.3916 43.7604 63.6135 43.278L63 45.0998Z" fill="#020000" fill-opacity="1.000000" fill-rule="evenodd"/>
		<path d="M78.603 43.5229C78.078 43.8059 77.4935 43.9482 76.9026 43.9367C74.7079 43.9367 73.3821 41.7506 73.3821 38.1123C73.3821 35.0517 74.4307 32.0926 76.8427 32.0926C77.4319 32.0981 78.0125 32.2394 78.5431 32.5064L79 30.4843C78.3452 30.1591 77.6279 29.9936 76.9026 30.0002C73.1573 30.0002 71 33.6385 71 38.1123C71 43.2653 73.1948 45.9979 76.4681 45.9979C77.3254 46.0227 78.175 45.8241 78.9401 45.4202L78.603 43.5229Z" fill="#020000" fill-opacity="1.000000" fill-rule="evenodd"/>
		<path d="M81 46L83.5959 46L83.5959 35.8473C83.5934 35.4547 83.6262 35.0627 83.6938 34.6755C84.1021 33.024 85.0082 32.1825 86.2163 32.1825C87.9714 32.1825 88.4041 33.9677 88.4041 35.8787L88.4041 46L91 46L91 35.5878C91 31.6556 89.2531 30.0828 87.1959 30.0828C86.4368 30.0558 85.6864 30.2474 85.0408 30.6333C84.4819 30.9958 84.0112 31.4707 83.6613 32.0253L83.5959 32.0253L83.5959 27L81 27L81 46Z" fill="#020000" fill-opacity="1.000000" fill-rule="evenodd"/>
		<path d="M97.0914 30C94.4847 30 92 32.3324 92 38.0156C92 43.4577 94.2028 46 96.939 46C99.2942 46 102 43.9786 102 37.9844C102 32.5967 99.8278 30 97.0914 30ZM97 31.9514C99.1342 31.9514 99.5762 35.6054 99.5762 37.9844C99.5762 40.3635 99.1342 44.0408 97.0609 44.0408C94.8583 44.0408 94.4238 40.55 94.4238 37.9844C94.4238 35.6054 94.8278 31.9514 97 31.9514Z" fill="#020000" fill-opacity="1.000000" fill-rule="evenodd"/>
		<path d="M108.091 30C105.485 30 103 32.3324 103 38.0156C103 43.4577 105.203 46 107.939 46C110.294 46 113 43.9786 113 37.9844C113 32.5967 110.828 30 108.091 30ZM108 31.9514C110.134 31.9514 110.576 35.6054 110.576 37.9844C110.576 40.3635 110.134 44.0408 108.061 44.0408C105.866 44.0408 105.424 40.55 105.424 37.9844C105.424 35.6054 105.828 31.9514 108 31.9514Z" fill="#020000" fill-opacity="1.000000" fill-rule="evenodd"/>
		<path d="M115 27L117 27L117 46L115 46L115 27Z" fill="#020000" fill-opacity="1.000000" fill-rule="evenodd"/>
		<path d="M11 30L21.998 30C26.3657 30 28.9716 28.4815 29.8157 25.4444C30.6292 22.4815 28.7504 21 24.1793 21L13.5016 21L11 30Z" fill="#EB6101" fill-opacity="1.000000" fill-rule="evenodd"/>
		<path d="M16 14L24.7397 14C29.2917 14 31.9866 12.4589 32.8241 9.37671C33.2065 7.95889 32.9646 6.88013 32.1062 6.125C31.2478 5.36984 29.8042 5 27.7987 5L18.4347 5L16 14ZM27.4164 7.71231C27.6396 7.70105 27.8623 7.74475 28.0643 7.83948C28.2662 7.93417 28.4413 8.0769 28.5736 8.25491C28.7058 8.43292 28.7913 8.64056 28.8223 8.85922C28.8531 9.07791 28.8286 9.30075 28.7507 9.50772C28.5974 10.0098 28.2897 10.4524 27.8702 10.7741C27.4508 11.0958 26.9403 11.2806 26.4098 11.3031C26.1864 11.3143 25.9637 11.2707 25.7618 11.176C25.5598 11.0812 25.3849 10.9385 25.2526 10.7605C25.1202 10.5825 25.0348 10.3748 25.0039 10.1562C24.9729 9.9375 24.9976 9.71469 25.0753 9.50772C25.2252 9.00299 25.5319 8.55746 25.9519 8.23395C26.3718 7.91046 26.8842 7.72531 27.4164 7.70462L27.4164 7.71231Z" fill="#EB6101" fill-opacity="1.000000" fill-rule="evenodd"/>
		<path d="M41.3286 0L49.5851 11.0871L49.6238 11.1412C51.0513 13.0895 51.3683 15.5482 50.5746 18.5171C50.0887 20.2951 49.2506 21.9574 48.1099 23.4051C46.969 24.8528 45.549 26.0565 43.9338 26.9445L46.887 30.9108C47.0771 31.1563 47.2502 31.4146 47.405 31.6839C48.3018 33.3307 48.3868 35.5497 47.6447 38.2944C47.1877 40.1177 46.3676 41.8299 45.233 43.3285C44.0986 44.8271 42.6733 46.0812 41.0426 47.0156C37.6616 49.0052 33.4922 50 28.5342 50L8.25647 50L0 38.9129L20.2932 38.9129C25.2563 38.9129 29.4258 37.9182 32.8016 35.9286C34.4324 34.9941 35.8577 33.74 36.9921 32.2414C38.1266 30.7429 38.9468 29.0306 39.4037 27.2074C40.1406 24.4446 40.0608 22.2411 39.1641 20.5969C38.2595 18.95 36.6283 17.6202 34.255 16.5997C38.5636 14.4864 41.2565 11.4195 42.3336 7.39911C43.1273 4.43018 42.8103 1.97156 41.3827 0.0231934C41.365 0.014679 41.347 0.00692749 41.3286 0Z" fill="url(#paint_linear_627_128_0)" fill-opacity="1.000000" fill-rule="evenodd"/>
		<path d="M11.6201 8.51111C12.6855 7.87704 13.8192 7.3627 15 6.97757C11.6046 4.9303 7.42639 6.41782 4 8.51111C6.23254 10.5661 9.5426 12.0613 14.124 10.0446C13.2065 9.6796 12.3595 9.16083 11.6201 8.51111Z" fill="url(#paint_linear_627_129_0)" fill-opacity="1.000000" fill-rule="evenodd"/>
	</g>
</svg>
